<svg xmlns="http://www.w3.org/2000/svg" viewBox="0 0 1209.12 695.03"><defs><style>.cls-1{fill:#c19752;}</style></defs><title>Asset 1</title><g id="Layer_2" data-name="Layer 2"><g id="Layer_1-2" data-name="Layer 1"><path class="cls-1" d="M1209,0q0,101.48.09,202.94c0,3.53-1.24,5.77-3.6,8.13q-172.9,172.77-345.63,345.7c-3.13,3.13-4.56,3.06-7.63,0q-202.76-203-405.63-405.88a12.1,12.1,0,0,0-9.48-4q-215.44.17-430.87.21C1.28,147.1,0,146.1,0,141,.23,94,.16,47,.16,0H505.07c2.76,1.33,4.77,3.57,6.89,5.69L849.78,343.52a34.23,34.23,0,0,1,2.81,2.84c2.34,2.92,4.55,2.91,6.88,0,.89-1,1.83-1.94,2.81-2.84L1200.16,5.68c2.11-2.11,4.12-4.35,6.88-5.68Z"/><path class="cls-1" d="M559.45,694.11c-2.18,1.23-3.85.78-5.44.78q-274.17,0-548.35.13C1,695,0,693.77,0,689.31q.24-68.22,0-136.46c0-3.7.65-5,4.78-5q202.44.2,404.89.08c2.4,0,4.31.35,6.19,2.23Q486.48,621,557.19,691.62A29.88,29.88,0,0,1,559.45,694.11Z"/><path class="cls-1" d="M500.88,420.48c-1.75.92-3.58.44-5.33.44q-244.92,0-489.86.13c-4.55,0-5.68-1.13-5.66-5.67q.27-68,0-136c0-4.07.54-5.59,5.25-5.58q173,.24,345.9.07a9.41,9.41,0,0,1,7.39,3q69.71,69.93,139.59,139.7C499.21,417.65,501,418.39,500.88,420.48Z"/><path class="cls-1" d="M1209,284.87v6.66q0,198.69.14,397.38c0,5.16-1.36,6.14-6.25,6.12q-68-.3-136,0c-3.72,0-5-.69-5-4.79q.21-127.47.08-254.92c0-2.41.38-4.31,2.25-6.18q70.8-70.59,141.45-141.3C1206.37,287.12,1207.16,286.51,1209,284.87Z"/></g></g></svg>