<svg width="40" height="40" viewBox="0 0 40 40" fill="none" xmlns="http://www.w3.org/2000/svg">
<path d="M30.7134 40H8.46433C3.78476 40 0 36.2152 0 31.5357V8.46433C0 3.79686 3.78476 0 8.46433 0H30.7134C35.393 0 39.1778 3.78476 39.1778 8.46433V31.5236C39.1778 36.2031 35.3809 40 30.7134 40Z" fill="#0C9AF2"/>
<path d="M30.5322 12.5521C31.7777 11.742 32.3581 11.2462 32.8297 9.56542C32.8297 9.56542 30.5685 10.8593 29.3714 10.8593C29.3593 10.8593 29.3351 10.8593 29.3109 10.8593C28.3194 9.80726 26.9167 9.1543 25.3689 9.1543C22.3702 9.1543 19.9276 11.5848 19.9276 14.5957C19.9276 14.9826 19.9639 15.3574 20.0485 15.7202C20.0243 15.7323 20.0122 15.7444 19.9881 15.7565C14.0509 16.0104 8.94815 10.1458 8.94815 10.1458C7.11018 13.9427 9.1658 16.3369 10.508 17.4856C9.78249 17.3889 9.0207 17.268 8.18636 16.8447C8.18636 18.0418 8.4282 20.8955 12.3943 22.2015C11.6567 22.3828 10.9191 22.2861 10.0727 22.2861C10.0727 22.2861 10.6531 25.7323 15.0183 26.0588C13.011 27.6065 10.8587 28.5013 7.19482 28.32C10.0485 29.9645 15.4657 32.4917 22.1888 29.3236L23.3133 28.6827C27.7269 26.1434 30.5443 21.5243 30.7861 16.4336L30.8829 14.4989C31.9348 14.0515 33.1682 12.5038 33.5552 11.8508C32.4669 12.2256 31.7293 12.4191 30.5322 12.5521Z" fill="white"/>
</svg>
